<svg xmlns="http://www.w3.org/2000/svg" width="1400" height="980" viewBox="0 0 1400 980">
  <defs>
    <style>
      .title { font: 700 28px 'Segoe UI', sans-serif; fill: #17324d; }
      .subtitle { font: 600 18px 'Segoe UI', sans-serif; fill: #36556f; }
      .label { font: 700 12px 'Segoe UI', sans-serif; fill: #17324d; }
      .body { font: 14px 'Segoe UI', sans-serif; fill: #2f5068; }
      .small { font: 12px 'Segoe UI', sans-serif; fill: #547088; }
      .layerA { fill: #eef7f0; stroke: #4f9d69; stroke-width: 2; rx: 18; }
      .layerB { fill: #eef5fb; stroke: #4e7aa7; stroke-width: 2; rx: 18; }
      .layerC { fill: #fff8ec; stroke: #d1902f; stroke-width: 2; rx: 18; }
      .layerD { fill: #f7f3ff; stroke: #7a68c7; stroke-width: 2; rx: 18; }
      .node { fill: #ffffff; stroke: #8fa4b7; stroke-width: 1.6; rx: 14; }
      .arrow { stroke: #4c697f; stroke-width: 2.4; fill: none; marker-end: url(#arrowHead); }
      .line { stroke: #4c697f; stroke-width: 2.4; fill: none; }
      .dash { stroke: #7d92a8; stroke-width: 2; fill: none; stroke-dasharray: 8 6; }
      .tag { font: 700 11px 'Segoe UI', sans-serif; fill: #4c697f; }
    </style>
    <marker id="arrowHead" markerWidth="10" markerHeight="10" refX="9" refY="5" orient="auto">
      <path d="M0,0 L10,5 L0,10 z" fill="#4c697f" />
    </marker>
  </defs>

  <rect x="0" y="0" width="1400" height="980" fill="#ffffff" />
  <text x="44" y="54" class="title">oh-my-codex-js 논리 배치 아키텍처</text>

  <rect x="70" y="130" width="1260" height="110" class="layerA" />
  <text x="90" y="165" class="label">명령 진입 계층</text>
  <rect x="340" y="152" width="180" height="60" class="node" />
  <text x="352" y="180" class="body">src/cli/index.ts</text>
  <text x="364" y="198" class="small">src/cli/omx.ts</text>
  <rect x="555" y="152" width="150" height="60" class="node" />
  <text x="570" y="180" class="body">src/index.ts</text>
  <text x="571" y="198" class="small">omx wrapper</text>
  <rect x="730" y="152" width="170" height="60" class="node" />
  <text x="748" y="180" class="body">src/cli/setup.ts</text>
  <text x="747" y="198" class="small">src/cli/doctor.ts</text>
  <rect x="925" y="152" width="250" height="60" class="node" />
  <text x="956" y="180" class="body">src/cli/team.ts</text>
  <text x="950" y="198" class="small">src/cli/ralph.ts · src/cli/ultragoal.ts</text>

  <rect x="70" y="265" width="1260" height="135" class="layerB" />
  <text x="90" y="300" class="label">오케스트레이션 계층</text>
  <rect x="210" y="288" width="170" height="70" class="node" />
  <text x="232" y="322" class="body">src/cli/setup.ts</text>
  <text x="227" y="340" class="small">config/generator.ts</text>
  <rect x="405" y="288" width="170" height="70" class="node" />
  <text x="422" y="322" class="body">src/cli/hooks.ts</text>
  <text x="418" y="340" class="small">src/hooks/agents-overlay.ts</text>
  <rect x="600" y="288" width="170" height="70" class="node" />
  <text x="625" y="322" class="body">src/cli/state.ts</text>
  <text x="618" y="340" class="small">src/state/*</text>
  <rect x="795" y="288" width="170" height="70" class="node" />
  <text x="818" y="322" class="body">src/team/runtime.ts</text>
  <text x="818" y="340" class="small">src/team/worktree.ts</text>
  <rect x="990" y="288" width="200" height="70" class="node" />
  <text x="1019" y="322" class="body">src/cli/team.ts</text>
  <text x="1011" y="340" class="small">src/cli/tmux-hook.ts</text>

  <rect x="70" y="425" width="1260" height="140" class="layerC" />
  <text x="90" y="460" class="label">표면/카탈로그계층</text>
  <rect x="200" y="448" width="170" height="78" class="node" />
  <text x="210" y="488" class="body">prompts/*.md</text>
  <text x="210" y="506" class="small">prompts/*-ko.md</text>
  <rect x="375" y="448" width="170" height="78" class="node" />
  <text x="395" y="488" class="body">skills/*/SKILL.md</text>
  <text x="412" y="506" class="small">skills manifest</text>
  <rect x="570" y="448" width="210" height="78" class="node" />
  <text x="592" y="488" class="body">src/catalog/manifest.json</text>
  <text x="617" y="506" class="small">reader.ts · skill-mirror.ts</text>
  <rect x="805" y="448" width="210" height="78" class="node" />
  <text x="820" y="488" class="body">plugins/oh-my-codex/skills/</text>
  <text x="845" y="506" class="small">.codex-plugin/plugin.json</text>
  <rect x="1040" y="448" width="180" height="78" class="node" />
  <text x="1057" y="488" class="body">plugins/oh-my-codex/.mcp.json</text>
  <text x="1081" y="506" class="small">MCP registry</text>

  <rect x="70" y="590" width="1260" height="150" class="layerD" />
  <text x="90" y="625" class="label">MCP 런타임 계층</text>
  <rect x="200" y="618" width="170" height="80" class="node" />
  <text x="219" y="656" class="body">src/cli/mcp-serve.ts</text>
  <text x="226" y="674" class="small">state | memory | wiki</text>
  <rect x="395" y="618" width="170" height="80" class="node" />
  <text x="414" y="656" class="body">src/mcp/state-server.ts</text>
  <text x="424" y="674" class="small">resources/* · code-intel/*</text>
  <rect x="590" y="618" width="170" height="80" class="node" />
  <text x="602" y="656" class="body">src/cli/mcp-parity.ts</text>
  <text x="606" y="674" class="small">parity check</text>
  <rect x="785" y="618" width="170" height="80" class="node" />
  <text x="808" y="656" class="body">src/cli/doctor.ts</text>
  <text x="812" y="674" class="small">runtime / setup health</text>
  <rect x="980" y="618" width="170" height="80" class="node" />
  <text x="997" y="656" class="body">src/catalog/reader.ts</text>
  <text x="1003" y="674" class="small">catalog / manifest SSOT</text>

  <rect x="70" y="760" width="600" height="135" class="layerA" />
  <text x="90" y="795" class="label">실행 보조 계층</text>
  <rect x="250" y="782" width="120" height="72" class="node" />
  <text x="265" y="818" class="body">src/cli/tmux-hook.ts</text>
  <text x="287" y="836" class="small">tmux</text>
  <rect x="390" y="782" width="120" height="72" class="node" />
  <text x="414" y="818" class="body">src/hud/*</text>
  <text x="421" y="836" class="small">HUD panes</text>
  <rect x="530" y="782" width="120" height="72" class="node" />
  <text x="550" y="818" class="body">src/sidecar/*</text>
  <text x="558" y="836" class="small">read-only view</text>

  <rect x="700" y="760" width="630" height="135" class="layerB" />
  <text x="730" y="795" class="label">검증/배포 계층</text>
  <rect x="875" y="782" width="140" height="72" class="node" />
  <text x="886" y="818" class="body">scripts/sync-plugin-mirror.ts</text>
  <text x="919" y="836" class="small">sync:plugin</text>
  <rect x="1035" y="782" width="140" height="72" class="node" />
  <text x="1051" y="818" class="body">package.json</text>
  <text x="1045" y="836" class="small">verify:plugin-bundle</text>
  <rect x="1195" y="782" width="110" height="72" class="node" />
  <text x="1201" y="818" class="body">src/cli/plugin-marketplace.ts</text>
  <text x="1217" y="836" class="small">native assets</text>

  <path d="M610 212 L610 265" class="line" />
  <path d="M610 400 L610 425" class="line" />
  <path d="M610 565 L610 590" class="line" />
  <path d="M340 212 L340 288" class="arrow" />
  <path d="M480 212 L480 288" class="arrow" />
  <path d="M675 212 L675 288" class="arrow" />
  <path d="M845 212 L845 288" class="arrow" />
  <path d="M1015 212 L1015 288" class="arrow" />
  <path d="M280 362 L280 448" class="arrow" />
  <path d="M475 362 L475 448" class="arrow" />
  <path d="M675 362 L675 448" class="arrow" />
  <path d="M870 362 L870 448" class="arrow" />
  <path d="M1140 362 L1140 448" class="arrow" />
  <path d="M285 526 L285 618" class="arrow" />
  <path d="M480 526 L480 618" class="arrow" />
  <path d="M695 526 L695 618" class="arrow" />
  <path d="M890 526 L890 618" class="arrow" />
  <path d="M1125 526 L1125 618" class="arrow" />

  <path d="M610 740 L610 760" class="line" />
  <path d="M1000 740 L1000 760" class="line" />
  <text x="92" y="736" class="small">보조 계층은 실행 가시성과 정합성 검증을 담당하고, 직접적인 도메인 로직은 위쪽 계층에 남긴다.</text>

  <text x="72" y="936" class="small">배치 원칙: CLI는 진입점, prompts/skills는 실행 표면, catalog/mirror는 정합성 기준, mcp/runtime는 표준 연결, tmux/HUD/sidecar는 실행 보조로 분리한다.</text>
</svg>